# AST/ASF file generated using VICON BodyLanguage
# -----------------------------------------------
:version 1.10
:name VICON
:units
  mass 1.0
  length 0.45
  angle deg
:documentation
   .ast/.asf automatically generated from VICON data using
   VICON BodyBuilder and BodyLanguage model FoxedUp or BRILLIANT.MOD
:root
   order TX TY TZ RX RY RZ
   axis XYZ
   position 0 0 0  
   orientation 0 0 0 
:bonedata
  begin
     id 1 
     name lhipjoint
     direction 0.650112 -0.723553 0.232005 
     length 2.45805 
     axis 0 0 0  XYZ
  end
  begin
     id 2 
     name lfemur
     direction 0.34202 -0.939693 0  
     length 7.00073  
     axis 0 0 20  XYZ
    dof rx ry rz
    limits (-160.0 20.0)
           (-70.0 70.0)
           (-60.0 70.0)
  end
  begin
     id 3 
     name ltibia
     direction 0.34202 -0.939693 0   
     length 7.8748   
     axis 0 0 20   XYZ
    dof rx
    limits (-10.0 170.0)
  end
  begin
     id 4 
     name lfoot
     direction 0.0542825 -0.14914 0.987325   
     length 1.75978   
     axis -90 7.62852e-016 20   XYZ
    dof rx rz
    limits (-45.0 90.0)
           (-70.0 20.0)
  end
  begin
     id 5 
     name ltoes
     direction 1.53509e-011 -4.21906e-011 1   
     length 0.893912   
     axis -90 7.62852e-016 20   XYZ
    dof rx
    limits (-90.0 20.0)
  end
  begin
     id 6 
     name rhipjoint
     direction -0.637897 -0.733345 0.235145   
     length 2.42522  
     axis 0 0 0  XYZ 
  end
  begin
     id 7 
     name rfemur
     direction -0.34202 -0.939693 0   
     length 7.02549   
     axis 0 0 -20   XYZ
    dof rx ry rz
    limits (-160.0 20.0)
           (-70.0 70.0)
           (-70.0 60.0)
  end
  begin
     id 8 
     name rtibia
     direction -0.34202 -0.939693 0   
     length 7.71512   
     axis 0 0 -20   XYZ
    dof rx
    limits (-10.0 170.0)
 end
 begin
     id 9 
     name rfoot
     direction -0.0822618 -0.226012 0.970645   
     length 1.90014  
     axis -90 -7.62852e-016 -20   XYZ
    dof rx rz
    limits (-45.0 90.0)
           (-20.0 70.0)
  end
  begin
     id 10 
     name rtoes
     direction -1.53542e-011 -4.21872e-011 1   
     length 0.957341   
     axis -90 -7.62852e-016 -20   XYZ
    dof rx
    limits (-90.0 20.0)
  end
  begin
     id 11 
     name lowerback
     direction -0.0022947 0.999774 -0.0211557   
     length 1.89909   
     axis 0 0 0   XYZ
    dof rx ry rz
    limits (-20.0 45.0)
           (-30.0 30.0)
           (-30.0 30.0)
  end
  begin
     id 12 
     name upperback
     direction 0.0107737 0.998635 0.0511027   
     length 1.8853   
     axis 0 0 0   XYZ
    dof rx ry rz
    limits (-20.0 45.0)
           (-30.0 30.0)
           (-30.0 30.0)
  end
  begin
     id 13 
     name thorax
     direction 0.011824 0.998136 0.0598754   
     length 1.88911   
     axis 0 0 0   XYZ
    dof rx ry rz
    limits (-20.0 45.0)
           (-30.0 30.0)
           (-30.0 30.0)
  end
  begin
     id 14 
     name lowerneck
     direction -0.0685355 0.990319 0.120714   
     length 1.91222   
     axis 0 0 0   XYZ
    dof rx ry rz
    limits (-20.0 45.0)
           (-30.0 30.0)
           (-30.0 30.0)
  end
  begin
     id 15 
     name upperneck
     direction 0.0886204 0.955665 -0.280805   
     length 1.92526   
     axis 0 0 0   XYZ
    dof rx ry rz
    limits (-20.0 45.0)
           (-30.0 30.0)
           (-30.0 30.0)
  end
  begin
     id 16
     name head
     direction 0.0233423 0.993502 -0.111393  
     length 1.96056  
     axis 0 0 0   XYZ
    dof rx ry rz
    limits (-20.0 45.0)
           (-30.0 30.0)
           (-30.0 30.0)
  end
  begin
     id 17 
     name lclavicle
     direction 0.941873 0.32922 0.0670041  
     length 3.31705  
     axis 0 0 0   XYZ
    dof ry rz
    limits (-20.0 10.0)
           (0.0 20.0)
  end
  begin
     id 18 
     name lhumerus
     direction 1 -4.4898e-011 3.38707e-028   
     length 5.29277   
     axis 180 -30 -90   XYZ
    dof rx ry rz
    limits (-60.0 90.0)
           (-90.0 90.0)
           (-90.0 90.0)
  end
  begin
     id 19
     name lradius
     direction 1 -4.48952e-011 1.63213e-028   
     length 2.85226   
     axis 180 -30 -90   XYZ
    dof rx
    limits (-10.0 170.0)
  end
  begin
     id 20
     name lwrist
     direction 1 -4.49001e-011 1.27856e-027   
     length 1.42613   
     axis -1.61767e-015 90 90   XYZ
    dof ry
    limits (-180.0 0.0)
 end
  begin
     id 21 
     name lhand
     direction 1 -4.48976e-011 2.55931e-027   
     length 0.602097   
     axis -1.63363e-015 90 90   XYZ
    dof rx rz
    limits (-90.0 90.0)
           (-45.0 45.0)
  end
  begin
     id 22 
     name lfingers
     direction 1 -4.48986e-011 5.11684e-027   
     length 0.485426   
     axis -3.26723e-015 90 90   XYZ
    dof rx
    limits (0.0 90.0)
  end
  begin
     id 23
     name lthumb
     direction 0.707107 -6.34915e-011 0.707107   
     length 0.696978   
     axis -90 45 -2.25915e-014   XYZ
    dof rx rz
    limits (-45.0 45.0)
           (-45.0 45.0)
  end
  begin
     id 24 
     name rclavicle
     direction -0.939974 0.327078 0.0973096   
     length 3.10337  
     axis 0 0 0   XYZ 
    dof ry rz
    limits (-10.0 20.0)
           (-20.0 0.0)
  end
  begin
     id 25 
     name rhumerus
     direction -1 -4.48975e-011 1.83745e-027  
     length 5.13304   
     axis 180 30 90   XYZ
    dof rx ry rz
    limits (-90.0 60.0)
           (-90.0 90.0)
           (-90.0 90.0)
  end
  begin
     id 26 
     name rradius
     direction -1 -4.48977e-011 7.1775e-029   
     length 2.74305   
     axis 180 30 90   XYZ
    dof rx
    limits (-10.0 170.0)
  end
  begin
     id 27 
     name rwrist
     direction -1 -4.48977e-011 1.27963e-027   
     length 1.37152   
     axis -1.61767e-015 -90 -90   XYZ
    dof ry
    limits (-180.0 0.0)
  end
  begin
     id 28
     name rhand
     direction -1 -4.4888e-011 2.56782e-027   
     length 0.767976   
     axis -1.63363e-015 -90 -90   XYZ
    dof rx rz
    limits (-90.0 90.0)
           (-45.0 45.0)
  end
  begin
     id 29
     name rfingers
     direction -1 -4.48947e-011 5.12384e-027   
     length 0.619162   
     axis -3.26723e-015 -90 -90   XYZ
    dof rx
    limits (0.0 90.0)
  end
  begin
     id 30
     name rthumb
     direction -0.707107 -6.34857e-011 0.707107   
     length 0.888997   
     axis -90 -45 2.25915e-014   XYZ
    dof rx rz
    limits (-45.0 45.0)
           (-45.0 45.0)
  end
:hierarchy
  begin
    root lhipjoint rhipjoint lowerback
    lhipjoint lfemur
    lfemur ltibia
    ltibia lfoot
    lfoot ltoes
    rhipjoint rfemur
    rfemur rtibia
    rtibia rfoot
    rfoot rtoes
    lowerback upperback
    upperback thorax
    thorax lowerneck lclavicle rclavicle
    lowerneck upperneck
    upperneck head
    lclavicle lhumerus
    lhumerus lradius
    lradius lwrist
    lwrist lhand lthumb
    lhand lfingers
    rclavicle rhumerus
    rhumerus rradius
    rradius rwrist
    rwrist rhand rthumb
    rhand rfingers
  end

#!OML:ASF F:\VICON\USERDATA\INSTALL\rory3\rory3.ASF
:FULLY-SPECIFIED
:DEGREES
1117
root 0.287145 17.1919 0.599815 5.44513 -11.8632 -2.31622
lowerback -5.60955 3.38198 2.69622
upperback -6.20727 4.4457 1.89842
thorax -3.22749 2.1562 0.576097
lowerneck -19.779 -5.62384 -10.9514
upperneck 46.2392 -3.09972 -2.49799
head 23.8068 -3.58404 -0.155284
rclavicle -4.67144e-014 -1.74931e-014
rhumerus -9.5031 -41.4609 -57.8282
rradius 108.004
rwrist -54.7135
rhand -39.8048 -6.85893
rfingers 7.12502
rthumb -12.7796 -36.4478
lclavicle -4.67144e-014 -1.74931e-014
lhumerus 267.478 -52.8834 -233.015
lradius 99.549
lwrist -5.13579
lhand -19.0144 1.4305
lfingers 7.12502
lthumb 7.2913 31.2849
rfemur -6.85701 13.5313 19.1987
rtibia 19.8123
rfoot -17.0297 -4.54245
rtoes -13.1943
lfemur -6.13229 -7.39649 -18.907
ltibia 24.5664
lfoot -21.9488 13.4358
ltoes -13.3373
1118
root 0.296008 17.1883 0.597071 5.46372 -12.8816 -1.97092
lowerback -5.72654 3.60957 2.45767
upperback -6.1771 4.74712 1.84654
thorax -3.14277 2.31558 0.672461
lowerneck -19.8087 -5.52859 -10.6493
upperneck 46.2781 -3.18813 -2.31385
head 23.8371 -3.53701 -0.130266
rclavicle 2.17669e-014 1.27222e-014
rhumerus -8.19432 -40.5714 -58.9727
rradius 107.78
rwrist -54.7723
rhand -39.2988 -7.46537
rfingers 7.12502
rthumb -12.2918 -37.0841
lclavicle 2.17669e-014 1.27222e-014
lhumerus 269.586 -51.6691 -235.728
lradius 99.7721
lwrist -5.94219
lhand -18.1125 1.14281
lfingers 7.12502
lthumb 8.16181 30.9652
rfemur -7.37326 13.8874 18.6384
rtibia 20.2865
rfoot -17.2299 -4.05131
rtoes -13.3393
lfemur -5.96057 -6.97324 -19.4406
ltibia 24.3326
lfoot -22.038 13.7278
ltoes -12.4595
1119
root 0.300964 17.1864 0.594319 5.50058 -13.6895 -1.67951
lowerback -5.83326 3.76989 2.22502
upperback -6.18491 4.96152 1.80189
thorax -3.10592 2.43073 0.768757
lowerneck -19.7424 -5.51695 -10.4834
upperneck 46.3234 -3.50073 -1.88322
head 23.8701 -3.56451 0.00434707
rclavicle 1.53064e-014 -1.07344e-014
rhumerus -7.16834 -39.7904 -59.9196
rradius 107.611
rwrist -54.7144
rhand -38.3594 -8.22479
rfingers 7.12502
rthumb -11.3859 -37.8957
lclavicle 1.53064e-014 -1.07344e-014
lhumerus 271.205 -50.5575 -237.888
lradius 99.9824
lwrist -6.61078
lhand -17.2775 0.79246
lfingers 7.12502
lthumb 8.96753 30.5819
rfemur -7.86178 14.2654 18.1811
rtibia 20.7524
rfoot -17.4237 -3.73234
rtoes -13.3833
lfemur -5.83193 -6.68857 -19.8771
ltibia 24.1045
lfoot -22.0028 14.1484
ltoes -12.2401
1120
root 0.302951 17.1846 0.589606 5.5739 -14.2577 -1.41879
lowerback -5.97129 3.89871 1.96485
upperback -6.20693 5.13491 1.74239
thorax -3.06893 2.52623 0.865657
lowerneck -19.5494 -5.60782 -10.4483
upperneck 46.2961 -4.04826 -1.25213
head 23.8234 -3.67286 0.223132
rclavicle 5.38706e-014 2.82274e-014
rhumerus -6.43764 -39.0895 -60.597
rradius 107.576
rwrist -54.7971
rhand -38.032 -8.88491
rfingers 7.12502
rthumb -11.0702 -38.573
lclavicle 5.38706e-014 2.82274e-014
lhumerus 272.279 -49.8561 -239.269
lradius 100.177
lwrist -7.18746
lhand -16.5423 0.715799
lfingers 7.12502
lthumb 9.677 30.4735
rfemur -8.31399 14.59 17.7906
rtibia 21.1329
rfoot -17.5879 -3.58269
rtoes -13.8879
lfemur -5.84228 -6.34737 -20.2087
ltibia 23.9669
lfoot -21.9414 14.4287
ltoes -12.8376
1121
root 0.304915 17.1839 0.585229 5.67979 -14.4981 -1.13636
lowerback -6.17472 3.96638 1.67129
upperback -6.24748 5.22694 1.64708
thorax -3.01529 2.58176 0.945901
lowerneck -19.2954 -5.69603 -10.3844
upperneck 46.1744 -4.61909 -0.597026
head 23.6719 -3.77884 0.448665
rclavicle -2.28602e-015 -4.77083e-015
rhumerus -6.17467 -38.3734 -60.9156
rradius 107.782
rwrist -55.4373
rhand -38.504 -8.85504
rfingers 7.12502
rthumb -11.5254 -38.5182
lclavicle -2.28602e-015 -4.77083e-015
lhumerus 273.052 -49.5574 -240.036
lradius 100.285
lwrist -7.46989
lhand -15.7447 0.544338
lfingers 7.12502
lthumb 10.4465 30.2648
rfemur -8.69303 14.7374 17.4044
rtibia 21.4057
rfoot -17.7673 -3.54439
rtoes -14.4377
lfemur -6.01071 -6.06704 -20.496
ltibia 23.9458
lfoot -21.9247 14.3281
ltoes -12.8318
1122
root 0.30358 17.1842 0.578405 5.90619 -14.4034 -1.08066
lowerback -6.39951 3.94817 1.53377
upperback -6.35745 5.20219 1.61509
thorax -3.01474 2.57395 0.999991
lowerneck -19.0064 -5.79272 -10.3215
upperneck 46.0524 -5.20717 0.0630216
head 23.5231 -3.89222 0.671227
rclavicle -2.28602e-015 -2.38542e-015
rhumerus -6.31538 -37.7831 -60.9906
rradius 108.056
rwrist -56.0878
rhand -38.8876 -8.33017
rfingers 7.12502
rthumb -11.8953 -37.9723
lclavicle -2.28602e-015 -2.38542e-015
lhumerus 273.491 -49.47 -240.297
lradius 100.351
lwrist -7.34575
lhand -14.8816 0.316853
lfingers 7.12502
lthumb 11.2789 29.9936
rfemur -9.02872 14.8416 17.3069
rtibia 21.5459
rfoot -17.833 -3.73967
rtoes -14.2963
lfemur -6.37836 -5.90741 -20.4607
ltibia 24.0589
lfoot -21.8525 13.9903
ltoes -12.7243
1123
root 0.299715 17.1847 0.57376 6.01014 -14.1182 -1.14356
lowerback -6.53808 3.86789 1.48103
upperback -6.43058 5.09511 1.63266
thorax -3.01985 2.52289 1.05016
lowerneck -18.7171 -5.94713 -10.3309
upperneck 45.9389 -5.88056 0.766047
head 23.4187 -4.04666 0.906305
rclavicle -7.55382e-015 1.59028e-015
rhumerus -6.72673 -37.3902 -60.8935
rradius 108.363
rwrist -56.4635
rhand -38.9622 -8.21593
rfingers 7.12502
rthumb -11.9672 -37.8538
lclavicle -7.55382e-015 1.59028e-015
lhumerus 273.718 -49.5833 -240.214
lradius 100.397
lwrist -7.30387
lhand -13.9747 0.178803
lfingers 7.12502
lthumb 12.1535 29.8058
rfemur -9.08395 15.0028 17.4218
rtibia 21.5492
rfoot -17.7661 -4.11063
rtoes -13.5821
lfemur -6.66999 -5.78095 -20.2758
ltibia 24.282
lfoot -21.8297 13.5257
ltoes -12.684
1124
root 0.294045 17.1855 0.573572 6.02598 -13.6638 -1.35257
lowerback -6.64319 3.76806 1.57602
upperback -6.44887 4.95636 1.66187
thorax -2.97415 2.45087 1.02928
lowerneck -18.4856 -6.16849 -10.4066
upperneck 45.8442 -6.65957 1.53219
head 23.4009 -4.24508 1.15782
rclavicle 2.48481e-014 1.98785e-015
rhumerus -7.35371 -37.1299 -60.6406
rradius 108.741
rwrist -56.6601
rhand -39.1814 -8.17454
rfingers 7.12502
rthumb -12.1785 -37.8
lclavicle 2.48481e-014 1.98785e-015
lhumerus 273.672 -50.008 -239.769
lradius 100.439
lwrist -7.48753
lhand -13.0496 0.216818
lfingers 7.12502
lthumb 13.0454 29.7889
rfemur -8.87751 15.1594 17.7678
rtibia 21.4218
rfoot -17.636 -4.68968
rtoes -13.389
lfemur -6.88192 -5.72534 -19.918
ltibia 24.5919
lfoot -21.9061 12.9377
ltoes -12.348
1125
root 0.284912 17.1854 0.575217 6.03062 -12.9982 -1.59354
lowerback -6.76254 3.61449 1.61497
upperback -6.47988 4.74933 1.73478
thorax -2.94204 2.34797 1.08134
lowerneck -18.191 -6.4213 -10.5901
upperneck 45.7479 -7.43508 2.27086
head 23.3888 -4.46837 1.41537
rclavicle -5.50634e-014 -6.75868e-015
rhumerus -8.24165 -37.026 -60.1063
rradius 109.026
rwrist -56.5673
rhand -39.1256 -8.16873
rfingers 7.12502
rthumb -12.1248 -37.7974
lclavicle -5.50634e-014 -6.75868e-015
lhumerus 273.331 -50.6299 -238.857
lradius 100.422
lwrist -7.66717
lhand -12.3302 0.276866
lfingers 7.12502
lthumb 13.7387 29.8033
rfemur -8.57355 15.234 18.1943
rtibia 21.2232
rfoot -17.48 -5.35118
rtoes -13.1834
lfemur -7.11324 -5.68474 -19.4737
ltibia 24.9158
lfoot -21.9623 12.1996
ltoes -11.7808
